<svg xmlns="http://www.w3.org/2000/svg" xmlns:svg="http://www.w3.org/2000/svg" id="svg11" width="300" height="300" x="0" y="0" version="1.1" viewBox="0 0 300 300"><metadata id="metadata17"/><g id="g8"><path style="fill:#000" id="path4" d="m 215.192,213.915 c 0,-89.565 -86.338,-72.014 -86.338,-119.758 0,-19.866 7.385,-40.824 42.491,-40.824 59.345,0 108.55,55.051 108.55,121.441 0,66.401 -48.79,120.226 -108.131,120.226 26.206,-15.189 43.428,-45.804 43.428,-81.085"/><path style="fill:#000" id="path6" d="m 128.233,5 c -26.206,15.188 -43.424,45.799 -43.424,81.091 0,89.564 86.336,72.003 86.336,119.746 0,19.875 -7.384,40.83 -42.5,40.83 C 69.308,246.667 20.104,191.613 20.104,125.224 20.104,58.831 68.893,5 128.233,5"/></g></svg>