<svg xmlns="http://www.w3.org/2000/svg" xmlns:xlink="http://www.w3.org/1999/xlink" width="40" height="40" x="0" y="0" version="1.1" viewBox="0 0 40 40"><defs><clipPath id="Clip_1"><path d="M0,0 L40,0 L40,40 L0,40 z"/></clipPath></defs><g id="Layer_1"><g clip-path="url(#Clip_1)"><path fill="#F0F0F0" d="M20,0 C31.046,0 40,8.954 40,20 C40,31.046 31.046,40 20,40 C8.954,40 0,31.046 0,20 C0,8.954 8.954,0 20,0"/><path fill="#D80027" d="M18.261,20 C18.261,20 5.87,34.145 5.858,34.142 C9.477,37.761 14.477,40 20,40 C31.046,40 40,31.045 40,20 z"/><path fill="#0052B4" d="M5.858,5.858 C-1.953,13.669 -1.953,26.332 5.858,34.142 C9.086,30.915 12.19,27.811 20,20 z"/></g></g></svg>