<svg xmlns="http://www.w3.org/2000/svg" xmlns:xlink="http://www.w3.org/1999/xlink" width="40" height="40" x="0" y="0" version="1.1" viewBox="0 0 40 40"><g id="Layer_1"><g><path fill="#FFDA44" d="M0,20 C0,22.446 0.44,24.79 1.244,26.957 L20,28.696 L38.756,26.957 C39.56,24.79 40,22.446 40,20 C40,17.554 39.56,15.21 38.756,13.043 L20,11.304 L1.244,13.043 C0.44,15.21 0,17.554 0,20"/><path fill="#D80027" d="M38.756,13.043 C35.93,5.428 28.599,0.001 20,0.001 C11.401,0.001 4.07,5.428 1.244,13.043 z"/><path fill="#D80027" d="M1.244,26.956 C4.07,34.572 11.401,40 20,40 C28.599,40 35.93,34.572 38.756,26.956 z"/></g></g></svg>