<svg xmlns="http://www.w3.org/2000/svg" xmlns:xlink="http://www.w3.org/1999/xlink" width="40" height="40" x="0" y="0" version="1.1" viewBox="0 0 40 40"><defs><clipPath id="Clip_1"><path d="M0,0 L40,0 L40,40 L0,40 z"/></clipPath></defs><g id="Layer_1"><g clip-path="url(#Clip_1)"><path fill="#F0F0F0" d="M20,0 C31.046,0 40,8.954 40,20 C40,31.046 31.046,40 20,40 C8.954,40 0,31.046 0,20 C0,8.954 8.954,0 20,0"/><path fill="#D80027" d="M40,20 C40,11.401 34.572,4.07 26.957,1.244 L26.957,38.756 C34.572,35.93 40,28.599 40,20"/><path fill="#6DA544" d="M-0,20 C-0,28.599 5.428,35.93 13.043,38.756 L13.043,1.244 C5.428,4.07 -0,11.401 -0,20"/></g></g></svg>